<?xml version="1.0" encoding="UTF-8"?><svg id="b" xmlns="http://www.w3.org/2000/svg" width="480" height="301.89" viewBox="0 0 480 301.89"><defs><style>.d,.e{stroke:#0041c0;stroke-linecap:round;stroke-linejoin:round;stroke-width:2px;}.d,.f{fill:#fff;}.e{fill:none;}.g{fill:#dbe9ff;}.g,.f,.h{stroke-width:0px;}.h{fill:#0041c0;}</style></defs><g id="c"><rect class="g" y="21.89" width="480" height="280" rx="7.98" ry="7.98"/><path class="h" d="M136.61,128.29c-.32.42-.42.46-.74.21-2.87-2.13-5.84-4.13-8.92-5.92-3.5,3.33-8.23,5.39-14.49,6.33-.35.04-.59.04-.77.04-.35,0-.49-.25-.77-.95-.42-1.01-1.01-1.92-1.54-2.48,6.12-.53,10.71-2.14,14.07-4.9-2.03-1.05-4.06-1.96-6.12-2.8-.35.56-.77,1.22-1.16,1.79-.25.35-.31.35-.74.14l-2.52-1.12c-.46-.17-.53-.31-.28-.67.84-1.12,1.5-2.17,2-3.04.95-1.75,1.92-3.75,2.83-5.81h-3.78c-3.11,0-4.17.07-4.38.07-.35,0-.38-.04-.38-.38v-2.73c0-.39.04-.42.38-.42.21,0,1.26.07,4.38.07h5.18c.59-1.54,1.08-3.04,1.5-4.45.35-1.19.59-2.34.74-3.43,1.36.14,2.73.38,3.78.67.46.11.6.32.6.59,0,.25-.14.42-.39.7-.28.35-.46.81-.73,1.61-.46,1.47-.95,2.91-1.44,4.3h12.29c3.12,0,4.17-.07,4.38-.07.38,0,.42.04.42.42v2.73c0,.35-.04.38-.42.38-.21,0-1.26-.07-4.38-.07h-1.33c-.95,4.27-2.38,7.77-4.45,10.64,2.98,1.64,5.99,3.57,9.07,5.67.32.21.28.28-.04.67l-1.85,2.21ZM121.59,109.11c-.84,2.03-1.71,3.92-2.66,5.74,2.38.88,4.73,1.93,7.11,3.12,1.82-2.38,3.12-5.32,3.92-8.85h-8.37Z"/><path class="h" d="M150.05,105.12c.46.1.53.17.49.56-.14,2.87-.42,5.5-1.12,7.67-.1.35-.17.28-.56.14l-1.75-.7c-.46-.17-.49-.35-.39-.7.6-1.89.98-4.3,1.12-7.1,0-.35.07-.32.56-.21l1.64.35ZM151.45,102.7c0-2.49-.04-3.61-.28-5.29,1.33.04,2.52.11,3.67.25.35.04.56.21.56.38,0,.25-.07.42-.17.67-.18.46-.25,1.33-.25,3.88v20.33c0,3.96.07,5.95.07,6.12,0,.39-.04.42-.38.42h-2.91c-.35,0-.38-.04-.38-.42,0-.17.07-2.17.07-6.09v-20.26ZM156.91,103.33c.38-.14.49-.1.63.21.49,1.33,1.05,2.87,1.37,4.3.73-1.89,1.33-3.88,1.64-5.67.11-.63.21-1.47.25-2.52,1.16.21,2.66.63,3.36.88.46.17.59.31.59.49,0,.24-.07.31-.21.49-.21.28-.35.67-.42,1.08-.17.84-.38,1.72-.63,2.62h3.22v-2.52c0-2.49-.07-3.57-.28-5.29,1.33.04,2.62.11,3.82.25.35.04.56.17.56.35,0,.25-.1.46-.17.7-.17.53-.25,1.33-.25,3.88v2.62h2.94c3.12,0,4.17-.07,4.38-.07.35,0,.38.04.38.38v2.7c0,.35-.04.38-.38.38-.21,0-1.26-.07-4.38-.07h-2.94v6.09h1.89c3.15,0,4.23-.07,4.44-.07.35,0,.39.04.39.38v2.73c0,.35-.04.39-.39.39-.21,0-1.29-.07-4.44-.07h-1.89v6.89h3.54c3.43,0,4.58-.07,4.79-.07.35,0,.38.04.38.38v2.7c0,.38-.03.42-.38.42-.21,0-1.37-.07-4.79-.07h-11.62c-3.43,0-4.62.07-4.79.07-.35,0-.38-.04-.38-.42v-2.7c0-.35.04-.38.38-.38.17,0,1.37.07,4.79.07h4.41v-6.89h-2.1c-3.15,0-4.2.07-4.45.07-.35,0-.38-.04-.38-.39v-2.73c0-.35.04-.38.38-.38.25,0,1.29.07,4.45.07h2.1v-6.09h-4.3c-.49,1.4-1.08,2.8-1.68,4.03-.28.52-.42.73-.63.73-.14,0-.35-.14-.67-.35-.8-.53-1.79-.95-2.52-1.16.59-.94,1.16-2.03,1.64-3.18l-1.47.52c-.46.18-.56.18-.63-.21-.28-1.61-.74-3.22-1.26-4.55-.14-.38-.11-.46.35-.59l1.37-.46Z"/><path class="h" d="M210.84,107.04c3.29,0,4.48-.07,4.73-.07.35,0,.38.04.38.39,0,.21-.07.73-.07,1.5v1.22c0,2.66.07,3.15.07,3.36,0,.35-.04.38-.38.38h-2.77c-.35,0-.38-.04-.38-.38v-3.64h-21.77v3.64c0,.35-.04.38-.42.38h-2.73c-.35,0-.38-.04-.38-.38,0-.25.07-.7.07-3.36v-1.01c0-.98-.07-1.5-.07-1.71,0-.35.04-.39.38-.39.25,0,1.43.07,4.72.07h7.28c-.04-.84-.07-1.54-.25-2.34,1.16,0,2.31.07,3.22.14l-.28-.25c-.59-.46-1.33-.8-1.89-1.01l.63-.7c-.28,0-1.23-.07-4.03-.07.35.63.7,1.33,1.01,2.14.14.35.14.42-.35.52l-2.31.46c-.49.11-.56.11-.66-.28-.28-.91-.67-1.92-1.09-2.83h-2.2c-.74,1.05-1.58,2.03-2.56,2.91-.38.35-.59.56-.8.56-.17,0-.35-.21-.74-.63-.63-.73-1.29-1.15-1.79-1.47,1.82-1.5,3.29-3.18,4.34-5.29.28-.52.46-.98.63-1.64,1.12.14,2.45.35,3.22.52.35.04.53.14.53.42,0,.21-.11.35-.28.49-.21.18-.35.39-.59.84l-.25.49h3.75c2.94,0,3.88-.07,4.09-.07.38,0,.42.03.42.38v2.13c.91-1.12,1.61-2.24,2.17-3.5.21-.46.46-1.12.59-1.75,1.05.14,2.28.35,3.01.53.38.07.56.17.56.42s-.11.35-.28.49c-.25.21-.46.7-.67,1.16l-.1.21h5.08c3.57,0,4.79-.07,5-.07.35,0,.38.03.38.38v2.17c0,.35-.04.38-.38.38-.21,0-1.44-.07-5-.07h-.6c.42.67.74,1.37,1.05,2.14.14.35.14.42-.35.52l-2.27.42c-.49.11-.56.07-.67-.28-.32-.88-.7-1.89-1.16-2.8h-2.59c-.35.6-.77,1.19-1.26,1.79-.24.28-.38.42-.52.49.04.07.04.11.04.21,0,.14-.07.28-.21.56-.14.24-.14.7-.14,1.19h7.88ZM205.49,111.42c3.08,0,4.51-.07,4.72-.07.35,0,.38.04.38.39,0,.21-.07.88-.07,2.42v1.75c0,1.54.07,2.21.07,2.45,0,.32-.03.35-.38.35-.21,0-1.64-.07-4.72-.07h-9.7v1.92h11.62c3.18,0,4.79-.07,5.04-.07.35,0,.38.03.38.42,0,.21-.07.91-.07,2.66v2.9c0,1.75.07,2.42.07,2.59,0,.35-.04.39-.38.39h-2.83c-.35,0-.38-.04-.38-.39v-.94h-13.44v1.01c0,.35-.04.38-.38.38h-2.77c-.35,0-.38-.03-.38-.38,0-.21.07-1.33.07-4.02v-9.28c0-2.7-.07-3.88-.07-4.09,0-.35.04-.39.38-.39.21,0,1.82.07,4.97.07h7.88ZM207.03,114.01h-11.24v2.03h11.24v-2.03ZM195.79,123.21v2.24h13.44v-2.24h-13.44Z"/><path class="h" d="M231.74,118.53c1.22-.56,2.42-1.12,3.64-1.79-.04.59-.04,1.5,0,2.27q.04,1.16-.88,1.68c-2.31,1.22-4.9,2.34-7.56,3.36-.56.25-.91.39-1.08.53-.21.17-.35.25-.56.25-.17,0-.31-.11-.46-.46-.31-.91-.59-2.03-.88-3.29,1.05-.17,2.07-.46,3.29-.84l1.02-.35v-7.59c-2.21,0-2.87.07-3.08.07-.35,0-.39-.04-.39-.38v-2.52c0-.38.04-.42.39-.42.21,0,.88.07,3.08.07v-6.16h-.21c-2.35,0-3.08.07-3.29.07-.32,0-.35-.03-.35-.38v-2.55c0-.38.04-.42.35-.42.21,0,.94.07,3.29.07h3.64c2.38,0,3.12-.07,3.29-.07.35,0,.38.04.38.42v2.55c0,.35-.04.38-.38.38-.17,0-.91-.07-3.25-.07v6.16c1.92,0,2.59-.07,2.8-.07.35,0,.35.04.35.42v2.52c0,.35,0,.38-.35.38-.21,0-.88-.07-2.8-.07v6.23ZM238.14,127.9c-3.46,0-4.65.07-4.86.07-.35,0-.39-.03-.39-.38v-2.48c0-.35.04-.39.39-.39.21,0,1.4.07,4.86.07h5.32v-3.43h-2.17c-3.22,0-4.3.07-4.51.07-.35,0-.39-.04-.39-.38v-2.42c0-.35.04-.38.39-.38.21,0,1.29.07,4.51.07h2.17v-3.01h-2.27c-3.19,0-4.34.07-4.55.07-.38,0-.42-.04-.42-.35,0-.21.07-1.33.07-3.89v-7.77c0-2.49-.07-3.57-.07-3.82,0-.35.04-.38.42-.38.21,0,1.37.07,4.55.07h8.33c3.22,0,4.34-.07,4.59-.07.35,0,.38.04.38.38,0,.21-.07,1.33-.07,3.82v7.77c0,2.56.07,3.68.07,3.89,0,.31-.04.35-.38.35-.25,0-1.37-.07-4.59-.07h-2.55v3.01h2.66c3.18,0,4.3-.07,4.51-.07.35,0,.39.04.39.38v2.42c0,.35-.04.38-.39.38-.21,0-1.33-.07-4.51-.07h-2.66v3.43h4.03c3.43,0,4.65-.07,4.83-.07.35,0,.38.04.38.39v2.48c0,.35-.04.38-.38.38-.18,0-1.4-.07-4.83-.07h-12.85ZM243.46,105.75v-3.54h-3.88v3.54h3.88ZM243.46,112.36v-3.75h-3.88v3.75h3.88ZM246.96,102.21v3.54h4.13v-3.54h-4.13ZM251.09,108.62h-4.13v3.75h4.13v-3.75Z"/><path class="h" d="M263.83,102.04c-.67,0-.95.04-1.05.04-.35,0-.38-.04-.38-.38v-2.45c0-.35.03-.38.38-.38.21,0,.95.07,3.43.07h3.78c2.45,0,3.22-.07,3.43-.07.32,0,.35.03.35.38v2.45c0,.35-.04.38-.35.38-.1,0-.35,0-.8-.04v23.38c0,2.38.07,3.46.07,3.67,0,.35-.04.39-.42.39h-2.34c-.35,0-.38-.04-.38-.39,0-.21.07-1.29.07-3.67v-2.03c-1.68.56-3.36,1.08-4.76,1.5-.67.18-.98.32-1.15.42-.21.14-.39.24-.56.24s-.31-.07-.42-.45c-.25-.95-.49-2.21-.67-3.36.7-.04,1.23-.14,1.79-.21v-19.5ZM269.61,105.92v-3.92h-2.8v3.92h2.8ZM269.61,112.89v-3.96h-2.8v3.96h2.8ZM269.61,115.9h-2.8v4.93c.91-.25,1.82-.53,2.8-.84v-4.09ZM288.93,111.32c.11,2.52.28,4.69.53,6.51.42-.81.8-1.65,1.16-2.52.31-.88.52-1.64.7-2.66.84.39,1.89.98,2.59,1.54.28.25.42.39.42.63s-.14.42-.39.67c-.21.21-.45.7-.73,1.4-.77,1.82-1.75,3.61-2.87,5.21.53,2.21.95,2.8,1.54,2.8.46,0,.7-.94,1.08-4.13.46.6,1.08.98,1.85,1.4.53.28.6.38.42,1.4-.56,3.99-1.79,5.25-3.29,5.25-1.33,0-2.73-1.12-3.85-3.89-1.5,1.65-3.18,3.08-4.93,4.24-.35.25-.6.38-.77.38-.28,0-.49-.28-.8-.91-.38-.73-.91-1.29-1.29-1.61,1.12-.63,2.13-1.33,3.12-2.1h-1.86c-.35,0-.38-.04-.38-.38v-.42h-3.71v1.96c0,.35-.04.38-.38.38h-2.14c-.35,0-.38-.04-.38-.38,0-.25.07-1.12.07-5.81v-3.08c0-2.94-.07-3.92-.07-4.17,0-.35.04-.39.38-.39.25,0,.88.07,2.94.07h2.91c2.06,0,2.69-.07,2.94-.07.32,0,.35.04.35.39,0,.21-.07,1.15-.07,3.33v3.18c0,3.46.04,4.55.07,4.9,1.08-.91,2.06-1.93,2.97-3.01-.11-.38-.17-.8-.25-1.22-.46-2.38-.74-5.36-.88-8.89h-8.19c-2.7,0-3.89.07-4.13.07-.31,0-.35-.04-.35-.42v-2.27c0-.35.04-.35.35-.35.18,0,.91.04,2.31.04-.25-1.01-.63-2.03-.95-2.87-.17-.38-.1-.52.35-.63l1.68-.42c.46-.11.49-.04.63.28.38,1.01.8,2.48,1.05,3.64h1.26c.28-.8.49-1.58.67-2.49.07-.42.14-.88.18-1.5.91.11,2.1.38,2.83.53.28.07.35.17.35.38,0,.25-.07.32-.17.42-.21.17-.28.32-.35.56-.17.63-.42,1.36-.7,2.1h3.08c-.07-1.86-.07-3.82-.11-5.92-.04-2.34-.07-3.43-.28-4.9,1.29.04,1.96.11,3.19.25.35.04.59.18.59.39,0,.28-.1.49-.21.73-.17.42-.21,1.05-.21,3.43,0,2.17.04,4.2.07,6.02h.52c3.4,0,4.58-.04,4.79-.04.35,0,.39,0,.39.35v2.27c0,.38-.04.42-.39.42-.21,0-1.4-.07-4.79-.07h-.46ZM277.52,103.93c-2.13,0-2.87.07-3.08.07-.35,0-.39-.04-.39-.38v-2.17c0-.35.04-.39.39-.39.21,0,.94.07,3.08.07h.18v-1.12c0-.94-.04-1.82-.21-2.66,1.29.04,2.03.07,3.18.18.35.03.56.21.56.42,0,.14-.11.31-.21.52-.14.32-.14.84-.14,1.58v1.08h.21c2.34,0,3.04-.07,3.25-.07.35,0,.39.04.39.39v2.17c0,.35-.04.38-.39.38-.21,0-.91-.07-3.25-.07h-3.57ZM277.45,115.27v1.86h3.71v-1.86h-3.71ZM281.16,121.61v-2.03h-3.71v2.03h3.71ZM291.59,99.8c.38-.21.53-.07.7.25.95,1.44,1.64,2.87,2.1,4.38.11.32.07.46-.25.63l-1.71.91c-.49.25-.56.14-.7-.25-.63-1.85-1.26-3.33-1.96-4.48-.17-.35-.14-.42.32-.67l1.5-.77Z"/><path class="h" d="M308.84,123.07c2.28-.63,4.58-1.4,7.25-2.49-.04.77-.04,1.61,0,2.34.07,1.19.04,1.19-.95,1.58-3.78,1.47-6.82,2.49-11.02,3.67-.59.18-.91.32-1.12.46-.21.14-.35.25-.56.25s-.35-.21-.46-.49c-.28-.98-.56-2.48-.74-3.67,1.12-.14,2.03-.31,3.15-.52l.73-.14v-20.37c0-2.42-.07-3.71-.25-5.32,1.26.04,2.62.1,3.82.25.35.03.56.21.56.38,0,.31-.1.49-.21.74-.21.42-.21,1.33-.21,3.88v4.69h2.73c2.97,0,3.92-.07,4.13-.07.35,0,.38.03.38.35v2.8c0,.35-.04.38-.38.38-.21,0-1.16-.07-4.13-.07h-2.73v11.38ZM322.04,110.02c2.13-1.22,4.51-2.97,5.84-4.16.67-.56,1.19-1.12,1.61-1.82.95.7,1.89,1.58,2.66,2.38.25.25.31.42.31.63,0,.25-.21.38-.49.46-.46.14-.81.42-1.75,1.12-1.89,1.54-5.11,3.75-8.19,5.25v9.03c0,1.36.07,1.71.46,2.06.38.28,1.05.38,2.87.38s2.52-.17,3.12-.73c.63-.56.77-1.79.8-5.18.59.39,1.71.77,2.62,1.05q.88.25.84,1.19c-.17,3.67-.74,5.15-1.82,5.95-1.05.77-2.97,1.16-5.74,1.16-3.43,0-4.73-.21-5.71-.88-.74-.53-1.16-1.08-1.16-3.12v-20.75c0-2.38-.07-4.24-.28-5.78,1.33.04,2.66.11,3.78.25.42.07.7.21.7.49,0,.31-.14.52-.25.7-.17.31-.25,1.05-.25,4.09v6.23Z"/><path class="h" d="M345,103.44c-3.18,0-4.24.07-4.48.07-.35,0-.38-.04-.38-.38v-2.42c0-.38.04-.42.38-.42.25,0,1.3.07,4.48.07h8.43c0-1.4-.03-2.28-.24-3.12,1.29.04,2.48.07,3.74.21.32.04.53.17.53.38,0,.17-.1.38-.21.63-.11.32-.14.74-.14,1.89h8.68c3.18,0,4.24-.07,4.45-.07.38,0,.42.04.42.42v2.42c0,.35-.04.38-.42.38-.21,0-1.26-.07-4.45-.07h-10.88c.42.24.8.45,1.15.7.32.21.42.32.42.53,0,.14-.18.28-.39.38-.25.11-.46.28-.73.63-.63.81-1.33,1.61-2.14,2.42.6.49,1.12,1.02,1.61,1.47.84-.91,1.61-1.82,2.31-2.62.6-.74.98-1.3,1.37-2.07.81.46,2.03,1.29,2.56,1.75.31.28.38.38.38.56s-.21.32-.46.42c-.32.17-.56.38-1.23,1.08-1.64,1.89-3.64,3.85-5.63,5.56,1.58-.1,3.25-.28,5.08-.49-.32-.56-.67-1.12-1.01-1.64-.18-.28-.18-.35.28-.56l1.65-.88c.35-.17.38-.1.56.18,1.23,1.64,2.24,3.64,3.19,5.6.14.32.14.38-.28.59l-1.89,1.02c-.39.21-.53.14-.67-.28l-.63-1.58c-2.52.38-4.73.67-6.86.88,1.16.07,2.24.21,3.36.32.31.04.52.17.52.42s-.07.31-.21.59c-.14.32-.14.77-.14,1.58h9.27c3.12,0,4.17-.07,4.38-.07.35,0,.35.04.35.38v2.56c0,.35,0,.38-.35.38-.21,0-1.26-.07-4.38-.07h-9.27v2.35c0,2.38.07,3.5.07,3.71,0,.35-.03.38-.38.38h-3.01c-.35,0-.38-.04-.38-.38,0-.21.07-1.33.07-3.71v-2.35h-8.89c-3.12,0-4.17.07-4.38.07-.31,0-.35-.04-.35-.38v-2.56c0-.35.04-.38.35-.38.21,0,1.26.07,4.38.07h8.89c0-1.33-.03-2-.21-2.87-1.05.11-2.06.21-3.11.28-.6.07-1.02.25-1.26.35-.17.07-.31.14-.52.14s-.32-.17-.42-.49c-.21-.84-.35-1.65-.46-2.59-1.37.91-2.73,1.68-4.27,2.66-.46.25-.88.53-1.05.77-.14.17-.35.35-.52.35s-.35-.07-.49-.31c-.46-.91-.98-2.14-1.37-3.12.88-.28,1.64-.63,2.31-.95,1.68-.8,3.75-1.85,5.53-3.08.11.56.35,1.23.63,1.93.14.42.25.67.25.84,0,.25-.14.35-.49.59.6,0,1.16.07,1.79.04,1.02-.84,1.96-1.75,2.91-2.66-1.37-1.33-3.01-2.76-4.69-4.03-.17-.1-.24-.21-.24-.28,0-.11.03-.18.17-.32l1.43-1.5c.32-.35.42-.38.7-.17l.95.7c.52-.63,1.05-1.26,1.54-1.93.17-.24.35-.56.52-.91h-8.05ZM342.79,104.45c.35-.28.42-.28.67-.04,1.65,1.22,3.18,2.7,4.55,4.38.21.28.21.42-.21.74l-1.92,1.5c-.35.28-.53.28-.7.04-1.33-1.89-2.66-3.33-4.23-4.66-.28-.25-.25-.32.1-.59l1.75-1.37ZM369.64,105.86c.25.24.28.42.28.63,0,.17-.21.38-.53.46-.45.1-.77.31-1.22.67-1.01.8-2.24,1.68-3.5,2.48-.42.28-.67.46-.88.46-.25,0-.42-.21-.74-.74-.38-.63-.94-1.12-1.4-1.54,1.58-.91,2.8-1.85,4.13-2.97.38-.35.95-.8,1.33-1.47.98.73,1.64,1.22,2.52,2.03ZM364.14,111.07c.25-.32.32-.32.63-.14,2.34,1.37,4.06,2.52,6.12,4.34.1.14.17.21.17.32s-.04.21-.17.38l-1.79,1.96c-.17.21-.32.28-.46.28-.11,0-.21-.07-.38-.25-1.72-1.89-3.36-3.29-5.53-4.66-.14-.1-.25-.17-.25-.28s.11-.21.25-.39l1.4-1.57Z"/><path class="h" d="M200.03,221.42h14.04v15.22h-14.04v25.23h-18.84v-25.23h-48.78l-.54-11.55,48.7-76.6h19.46v72.93ZM151.64,221.42h29.55v-47.31l-1.4,2.49-28.15,44.82Z"/><path class="h" d="M239.49,242.01c3.51,0,6.23,1,8.14,2.99,1.91,1.99,2.87,4.49,2.87,7.49s-.96,5.4-2.87,7.34c-1.91,1.94-4.63,2.91-8.14,2.91s-6.03-.96-7.99-2.87c-1.96-1.92-2.95-4.38-2.95-7.38s.95-5.5,2.87-7.49c1.91-1.99,4.6-2.99,8.07-2.99Z"/><path class="h" d="M307.62,224.72c-5.05,5.35-10.94,8.02-17.68,8.02-7.94,0-14.27-2.79-18.98-8.36s-7.07-12.91-7.07-21.99c0-5.97,1.2-11.38,3.6-16.23,2.4-4.85,5.81-8.62,10.24-11.32,4.43-2.7,9.55-4.04,15.39-4.04,9.1,0,16.31,3.41,21.65,10.22,5.33,6.81,8,15.93,8,27.35v4.24c0,16.37-3.68,28.85-11.04,37.45-7.36,8.6-18.34,12.96-32.94,13.08h-1.8v-12.53h2.17c8.89-.12,15.72-2.28,20.47-6.47,4.76-4.19,7.42-10.66,8-19.42ZM293.1,220.91c3.02,0,5.85-.87,8.5-2.61,2.65-1.74,4.69-4.14,6.14-7.21v-5.91c0-6.67-1.37-12.04-4.09-16.11-2.73-4.06-6.27-6.09-10.61-6.09s-7.81,1.79-10.39,5.38c-2.58,3.58-3.88,8.12-3.88,13.59s1.3,10.26,3.91,13.74c2.61,3.48,6.08,5.22,10.42,5.22Z"/><path class="h" d="M361.58,224.04c0,9.03-4.83,14.07-11.9,14.07s-11.76-5.04-11.76-14,4.76-13.86,11.76-13.86,11.9,4.76,11.9,13.79ZM341.63,264.15l44.03-54.88,2.8,2.31-43.96,54.81-2.87-2.24ZM344.64,224.11c0,6.09,1.68,9.24,5.04,9.24s5.11-3.15,5.11-9.24-1.68-9.03-5.11-9.03-5.04,3.01-5.04,9.03ZM392.45,251.48c0,9.03-4.83,14.07-11.76,14.07s-11.9-5.04-11.9-14.07,4.76-13.79,11.9-13.79,11.76,4.76,11.76,13.79ZM375.58,251.55c0,6.09,1.68,9.24,5.11,9.24s5.04-3.15,5.04-9.24-1.68-9.1-5.04-9.1-5.11,3.08-5.11,9.1Z"/><path class="f" d="M274.74,59.61c0-3.92-2.72-7.74-6.65-8.37l-8.19-1.43v-27.74c0-11.88-8.91-21.07-19.89-21.07s-19.89,9.19-19.89,20.52v28.29s-8.19,1.43-8.19,1.43c-3.93.63-6.65,4.04-6.65,8.37l-1.4,19.89h72.27l-1.4-19.89Z"/><path class="e" d="M252.69,48.55c0,5.35-5.68,12.45-12.69,12.45s-12.69-7.1-12.69-12.45c0,0,12.69-12.31,12.69-12.31,0,0,12.69,12.31,12.69,12.31Z"/><line class="e" x1="256.82" y1="68.69" x2="265.64" y2="68.69"/><path class="e" d="M276.14,79.5l-1.4-19.89c0-3.92-2.72-7.74-6.65-8.37l-15.39-2.69"/><path class="e" d="M227.31,48.55l-15.39,2.69c-3.93.63-6.65,4.04-6.65,8.37l-1.4,19.89"/><path class="e" d="M220.12,49.67v-28.15c-.01-11.33,8.89-20.52,19.88-20.52s19.89,9.19,19.89,20.52v28.14"/><path class="d" d="M253.89,23.67c0,12.35-6.22,22.36-13.89,22.36s-13.89-10.01-13.89-22.36"/><path class="e" d="M253.89,23.67c-1.77.47-3.65.73-5.61.73-7.89,0-14.62-4.14-17.26-9.97"/></g></svg>