<?xml version="1.0" encoding="UTF-8"?><svg id="b" xmlns="http://www.w3.org/2000/svg" width="357.11" height="80.35" viewBox="0 0 357.11 80.35"><defs><style>.d{fill:#0af;}.d,.e{stroke-width:0px;}.e{fill:#0041c0;}</style></defs><g id="c"><path class="e" d="M0,79.28V1.07h26.8c8.84,0,15.58,1.77,20.2,5.32s6.93,8.83,6.93,15.84c0,3.58-.97,6.8-2.9,9.67-1.93,2.87-4.76,5.08-8.49,6.66,4.22,1.15,7.49,3.3,9.8,6.47,2.31,3.17,3.46,6.97,3.46,11.41,0,7.34-2.35,12.98-7.06,16.92-4.71,3.94-11.45,5.91-20.22,5.91H0ZM13.59,34h13.32c4.22,0,7.53-.96,9.91-2.87,2.38-1.92,3.57-4.63,3.57-8.14,0-3.87-1.1-6.66-3.3-8.38-2.2-1.72-5.63-2.58-10.29-2.58h-13.21v21.97ZM13.59,43.99v24.44h15.09c4.26,0,7.59-1.06,9.99-3.17,2.4-2.11,3.6-5.05,3.6-8.81,0-8.13-4.15-12.28-12.46-12.46H13.59Z"/><path class="e" d="M147.77,79.28V1.07h26.8c8.84,0,15.58,1.77,20.2,5.32s6.93,8.83,6.93,15.84c0,3.58-.97,6.8-2.9,9.67-1.93,2.87-4.76,5.08-8.49,6.66,4.22,1.15,7.49,3.3,9.8,6.47,2.31,3.17,3.46,6.97,3.46,11.41,0,7.34-2.35,12.98-7.06,16.92-4.71,3.94-11.45,5.91-20.22,5.91h-28.52ZM161.36,34h13.32c4.22,0,7.53-.96,9.91-2.87,2.38-1.92,3.57-4.63,3.57-8.14,0-3.87-1.1-6.66-3.3-8.38-2.2-1.72-5.63-2.58-10.29-2.58h-13.21v21.97ZM161.36,43.99v24.44h15.09c4.26,0,7.59-1.06,9.99-3.17,2.4-2.11,3.6-5.05,3.6-8.81,0-8.13-4.15-12.28-12.46-12.46h-16.22Z"/><path class="d" d="M357.11,53.82c-.79,8.34-3.87,14.85-9.24,19.52s-12.51,7.01-21.43,7.01c-6.23,0-11.72-1.48-16.46-4.43-4.74-2.95-8.41-7.15-10.98-12.6-2.58-5.44-3.92-11.76-4.03-18.96v-7.3c0-7.38,1.31-13.88,3.92-19.5,2.61-5.62,6.36-9.95,11.25-13,4.89-3.04,10.54-4.57,16.95-4.57,8.63,0,15.58,2.34,20.84,7.01s8.33,11.29,9.18,19.85h-13.54c-.64-5.62-2.28-9.68-4.92-12.17-2.63-2.49-6.49-3.73-11.57-3.73-5.91,0-10.45,2.16-13.62,6.48-3.17,4.32-4.79,10.65-4.86,19v6.94c0,8.46,1.51,14.91,4.54,19.35,3.03,4.44,7.46,6.67,13.29,6.67,5.33,0,9.35-1.2,12.03-3.6,2.69-2.4,4.39-6.39,5.1-11.98h13.54Z"/><path class="e" d="M86.02,37.5v8.09h5.88v5.54h-5.88v18.58c0,1.27.25,2.19.75,2.75.5.56,1.4.85,2.69.85.86,0,1.73-.1,2.61-.31v5.78c-1.7.47-3.34.71-4.92.71-5.74,0-8.61-3.17-8.61-9.51v-18.86h-5.48v-5.54h5.48v-8.09h7.48Z"/><path class="e" d="M99.36,61.93c0-3.26.65-6.2,1.94-8.81s3.11-4.62,5.44-6.03,5.02-2.11,8.06-2.11c4.49,0,8.14,1.45,10.94,4.34,2.8,2.89,4.31,6.73,4.54,11.5l.03,1.75c0,3.28-.63,6.21-1.89,8.8-1.26,2.58-3.07,4.58-5.41,6s-5.06,2.12-8.14,2.12c-4.7,0-8.45-1.56-11.27-4.69-2.82-3.13-4.23-7.3-4.23-12.5v-.37ZM106.83,62.57c0,3.42.71,6.11,2.12,8.04,1.42,1.94,3.38,2.91,5.91,2.91s4.49-.98,5.89-2.95c1.4-1.97,2.11-4.85,2.11-8.64,0-3.36-.72-6.03-2.17-8-1.45-1.97-3.41-2.95-5.89-2.95s-4.38.97-5.81,2.91-2.15,4.83-2.15,8.69Z"/><path class="d" d="M234.7,37.5v8.09h5.88v5.54h-5.88v18.58c0,1.27.25,2.19.75,2.75.5.56,1.4.85,2.69.85.86,0,1.73-.1,2.61-.31v5.78c-1.7.47-3.34.71-4.92.71-5.74,0-8.61-3.17-8.61-9.51v-18.86h-5.48v-5.54h5.48v-8.09h7.48Z"/><path class="d" d="M248.04,61.93c0-3.26.65-6.2,1.94-8.81s3.11-4.62,5.44-6.03,5.02-2.11,8.06-2.11c4.49,0,8.14,1.45,10.94,4.34,2.8,2.89,4.31,6.73,4.54,11.5l.03,1.75c0,3.28-.63,6.21-1.89,8.8-1.26,2.58-3.07,4.58-5.41,6s-5.06,2.12-8.14,2.12c-4.7,0-8.45-1.56-11.27-4.69-2.82-3.13-4.23-7.3-4.23-12.5v-.37ZM255.51,62.57c0,3.42.71,6.11,2.12,8.04,1.42,1.94,3.38,2.91,5.91,2.91s4.49-.98,5.89-2.95c1.4-1.97,2.11-4.85,2.11-8.64,0-3.36-.72-6.03-2.17-8-1.45-1.97-3.41-2.95-5.89-2.95s-4.38.97-5.81,2.91-2.15,4.83-2.15,8.69Z"/></g></svg>