<?xml version="1.0" encoding="UTF-8"?><svg id="b" xmlns="http://www.w3.org/2000/svg" width="55.49" height="60.42" viewBox="0 0 55.49 60.42"><defs><style>.d{fill:none;stroke:#0041c0;stroke-linecap:round;stroke-linejoin:round;stroke-width:1.5px;}.e{fill:#fff;stroke-width:0px;}</style></defs><g id="c"><path class="e" d="M53.29,44.96c0-2.93-2.03-5.78-4.97-6.25l-6.12-1.07v-20.86c0-3.72.15-7.4-3.75-9.19-1-4.79-6.35-6.55-11.11-6.55-8.21,0-14.86,6.86-14.86,15.33v21.27s-6.12,1.07-6.12,1.07c-2.94.47-4.97,3.02-4.97,6.25l-.65,14.71h53.99l-1.45-14.71Z"/><line class="d" x1="33.96" y1="46.35" x2="31.77" y2="59.39"/><line class="d" x1="20.65" y1="46.35" x2="22.84" y2="59.39"/><polyline class="d" points="32.87 32.49 42.47 45.95 34.4 41.65 29.97 44.82"/><polyline class="d" points="21.74 32.49 12.14 45.95 20.21 41.65 24.64 44.82"/><path class="d" d="M.75,59.67l1.05-14.86c0-2.93,2.03-5.78,4.97-6.25l11.5-2.01"/><path class="d" d="M35.91,36.59l12.81,1.97c2.94.47,4.97,3.02,4.97,6.25l1.05,14.86"/><path class="d" d="M17.37,17.98c0,9.22,4.64,16.7,10.37,16.7,5.73,0,10.37-7.48,10.37-16.7"/><path class="d" d="M17.37,17.98c1.32.35,2.73.54,4.19.54,5.89,0,10.92-3.09,12.9-7.45"/><path class="d" d="M42.37,37.28v-21.13c.01-3.85-.56-7.6-4.13-8.56-1.06-5.23-6.28-6.85-10.79-6.85-8.25,0-14.93,6.9-14.93,15.4v21.13"/></g></svg>